<svg xmlns="http://www.w3.org/2000/svg" width="800" height="600" viewBox="0 0 800 600">
  <rect fill="#e5e7eb" width="800" height="600"/>
  <g fill="#9ca3af">
    <path d="M400 220c-33.137 0-60 26.863-60 60s26.863 60 60 60 60-26.863 60-60-26.863-60-60-60zm0 100c-22.091 0-40-17.909-40-40s17.909-40 40-40 40 17.909 40 40-17.909 40-40 40z"/>
    <path d="M520 180H280c-22.091 0-40 17.909-40 40v160c0 22.091 17.909 40 40 40h240c22.091 0 40-17.909 40-40V220c0-22.091-17.909-40-40-40zm20 200c0 11.046-8.954 20-20 20H280c-11.046 0-20-8.954-20-20V220c0-11.046 8.954-20 20-20h240c11.046 0 20 8.954 20 20v160z"/>
    <circle cx="310" cy="250" r="20"/>
  </g>
  <text x="400" y="480" font-family="system-ui, sans-serif" font-size="24" fill="#6b7280" text-anchor="middle">Image Placeholder</text>
</svg>
